<?xml version="1.0" encoding="utf-8"?>
<svg version="1.1" id="_x30_1_x5F_Contact-Female" x="0px" y="0px" viewBox="0 0 16 16" style="enable-background:new 0 0 24 24;" xmlns="http://www.w3.org/2000/svg">
  <style type="text/css">
	.st0{fill:#758981;}
</style>
  <path class="st0" d="M 8.205 13.4 L 12.705 8 L 8.405 2.6 C 8.305 2.4 8.205 2.2 8.205 2 C 8.205 1.4 8.705 1 9.205 1 C 9.505 1 9.805 1.1 10.005 1.4 L 14.805 7.4 C 15.105 7.8 15.105 8.3 14.805 8.7 L 9.805 14.7 C 9.805 14.7 9.805 14.7 9.805 14.7 C 9.405 15.1 8.805 15.2 8.405 14.8 C 7.905 14.4 7.905 13.8 8.205 13.4 Z M 1.405 14.8 C 1.805 15.2 2.505 15.1 2.805 14.7 L 7.805 8.7 C 8.105 8.3 8.105 7.8 7.805 7.4 L 3.005 1.4 C 2.705 1.1 2.505 1 2.205 1 C 1.605 1 1.205 1.4 1.205 2 C 1.205 2.2 1.305 2.5 1.405 2.6 L 5.705 8 L 1.205 13.4 C 0.905 13.8 0.905 14.4 1.405 14.8 Z"/>
</svg>