<?xml version="1.0" encoding="utf-8"?>
<svg version="1.1" id="_x30_1_x5F_Contact-Female" x="0px" y="0px" viewBox="0 0 16 19" style="enable-background:new 0 0 24 24;" xmlns="http://www.w3.org/2000/svg">
  <style type="text/css">
	.st0{fill:#758981;}
</style>
  <path class="st0" d="M 8.205 16.4 L 12.705 11 L 8.405 5.6 C 8.305 5.4 8.205 5.2 8.205 5 C 8.205 4.4 8.705 4 9.205 4 C 9.505 4 9.805 4.1 10.005 4.4 L 14.805 10.4 C 15.105 10.8 15.105 11.3 14.805 11.7 L 9.805 17.7 C 9.805 17.7 9.805 17.7 9.805 17.7 C 9.405 18.1 8.805 18.2 8.405 17.8 C 7.905 17.4 7.905 16.8 8.205 16.4 Z M 1.405 17.8 C 1.805 18.2 2.505 18.1 2.805 17.7 L 7.805 11.7 C 8.105 11.3 8.105 10.8 7.805 10.4 L 3.005 4.4 C 2.705 4.1 2.505 4 2.205 4 C 1.605 4 1.205 4.4 1.205 5 C 1.205 5.2 1.305 5.5 1.405 5.6 L 5.705 11 L 1.205 16.4 C 0.905 16.8 0.905 17.4 1.405 17.8 Z"/>
</svg>