<?xml version="1.0" encoding="utf-8"?>
<!-- Generator: Adobe Illustrator 24.2.3, SVG Export Plug-In . SVG Version: 6.00 Build 0)  -->
<svg version="1.1" id="_x30_1_x5F_Contact-Female" xmlns="http://www.w3.org/2000/svg" xmlns:xlink="http://www.w3.org/1999/xlink"
	 x="0px" y="0px" viewBox="0 0 24 24" style="enable-background:new 0 0 24 24;" xml:space="preserve">
<style type="text/css">
	.st0{fill:#020203;}
</style>
<path class="st0" d="M12.6,8.2C12.5,8.1,12.2,8,12,8c-0.2,0-0.4,0-0.6,0.2l-6,4.8c0,0,0,0-0.1,0c-0.4,0.4-0.4,1-0.1,1.4c0,0,0,0,0,0
	c0.3,0.4,1,0.5,1.4,0.1l5.4-4.3l5.4,4.5c0.4,0.4,1.1,0.3,1.4-0.1c0.4-0.4,0.3-1.1-0.1-1.4L12.6,8.2z"/>
</svg>
