<?xml version="1.0" encoding="utf-8"?>
<!-- Generator: Adobe Illustrator 24.2.3, SVG Export Plug-In . SVG Version: 6.00 Build 0)  -->
<svg version="1.1" id="_x30_1_x5F_Contact-Female" xmlns="http://www.w3.org/2000/svg" xmlns:xlink="http://www.w3.org/1999/xlink"
	 x="0px" y="0px" viewBox="0 0 24 24" style="enable-background:new 0 0 24 24;" xml:space="preserve">
<style type="text/css">
	.st0{fill:#020203;}
</style>
<path class="st0" d="M9.2,18.6C9.4,18.9,9.7,19,10,19c0.2,0,0.4-0.1,0.6-0.2c0.4-0.3,0.5-1,0.2-1.4c0,0,0,0,0,0L8.1,14H17
	c1.7,0,3-1.3,3-3L20,6c0-0.6-0.4-1-1-1c-0.6,0-1,0.4-1,1v5c0,0.3-0.1,0.5-0.3,0.7C17.5,11.8,17.2,12,17,12H8l2.7-3.4
	c0.2-0.5-0.1-1.1-0.6-1.3C9.8,7.1,9.5,7.2,9.2,7.4l-4,5c-0.3,0.4-0.3,0.9,0,1.3L9.2,18.6z"/>
</svg>
