<?xml version="1.0" encoding="utf-8"?>
<!-- Generator: Adobe Illustrator 24.2.3, SVG Export Plug-In . SVG Version: 6.00 Build 0)  -->
<svg version="1.1" id="_x30_1_x5F_Contact-Female" xmlns="http://www.w3.org/2000/svg" xmlns:xlink="http://www.w3.org/1999/xlink"
	 x="0px" y="0px" viewBox="0 0 24 24" style="enable-background:new 0 0 24 24;" xml:space="preserve">
<style type="text/css">
	.st0{fill:#020203;}
</style>
<path class="st0" d="M4.1,12.5c0,0.1,0.1,0.1,0.1,0.2l5,6C9.4,18.9,9.7,19,10,19c0.2,0,0.5-0.1,0.6-0.2c0.4-0.4,0.5-1,0.1-1.4
	c0,0,0,0,0,0L7.1,13H19c0.6,0,1-0.4,1-1c0-0.6-0.4-1-1-1H7.1l3.6-4.4c0.4-0.4,0.3-1.1-0.1-1.4c-0.4-0.4-1.1-0.3-1.4,0.1l-5,6
	c0,0-0.1,0.1-0.1,0.2c0,0,0,0.1-0.1,0.1C4,11.8,4,11.9,4,12c0,0.1,0,0.2,0.1,0.4C4.1,12.4,4.1,12.4,4.1,12.5z"/>
</svg>
