<?xml version="1.0" encoding="utf-8"?>
<!-- Generator: Adobe Illustrator 24.2.3, SVG Export Plug-In . SVG Version: 6.00 Build 0)  -->
<svg version="1.1" id="_x30_1_x5F_Contact-Female" xmlns="http://www.w3.org/2000/svg" xmlns:xlink="http://www.w3.org/1999/xlink"
	 x="0px" y="0px" viewBox="0 0 24 24" style="enable-background:new 0 0 24 24;" xml:space="preserve">
<style type="text/css">
	.st0{fill:#020203;}
</style>
<path class="st0" d="M5,13h11.9l-3.6,4.4c-0.4,0.4-0.3,1.1,0.1,1.4c0.4,0.4,1.1,0.3,1.4-0.1l5-6c0,0,0.1-0.1,0.1-0.2
	c0,0,0-0.1,0.1-0.1c0-0.1,0.1-0.2,0.1-0.4c0-0.1,0-0.2-0.1-0.4c0-0.1,0-0.1-0.1-0.1c0-0.1-0.1-0.1-0.1-0.2l-5-6
	C14.6,5.1,14.3,5,14,5c-0.2,0-0.5,0.1-0.6,0.2c-0.4,0.4-0.5,1-0.1,1.4c0,0,0,0,0,0l3.6,4.4H5c-0.6,0-1,0.4-1,1C4,12.6,4.4,13,5,13z"
	/>
</svg>
