<?xml version="1.0" encoding="utf-8"?>
<!-- Generator: Adobe Illustrator 24.2.3, SVG Export Plug-In . SVG Version: 6.00 Build 0)  -->
<svg version="1.1" id="_x30_1_x5F_Contact-Female" xmlns="http://www.w3.org/2000/svg" xmlns:xlink="http://www.w3.org/1999/xlink"
	 x="0px" y="0px" viewBox="0 0 24 24" style="enable-background:new 0 0 24 24;" xml:space="preserve">
<style type="text/css">
	.st0{fill:#020203;}
</style>
<path class="st0" d="M12.2,21c4,0.1,7.6-2.5,8.8-6.3c0.2-0.5-0.1-1.1-0.7-1.2c0,0,0,0,0,0c-0.5-0.2-1.1,0.1-1.3,0.6
	c-1,3-3.8,5-6.9,4.9c-3.9,0-7.1-3.1-7.2-7c0.1-3.9,3.3-7,7.2-7c1.7,0,3.3,0.6,4.7,1.7l-2.2-0.4c-0.5-0.1-1.1,0.3-1.1,0.8
	c0,0,0,0,0,0c-0.1,0.5,0.3,1.1,0.8,1.1c0,0,0,0,0,0L18.6,9h0.2c0.1,0,0.2,0,0.3-0.1c0,0,0.1,0,0.1-0.1c0.1,0,0.1-0.1,0.2-0.1
	l0.1-0.1c0,0,0.1-0.1,0.1-0.1c0-0.1,0-0.1,0-0.1c0-0.1,0.1-0.1,0.1-0.2l0.8-4c0.1-0.6-0.3-1.1-0.8-1.2c-0.6-0.1-1.1,0.3-1.2,0.8
	l-0.3,1.5c-1.7-1.5-3.8-2.2-6-2.3c-5,0-9.1,4-9.2,9C3.1,17,7.2,21,12.2,21z"/>
</svg>
