<?xml version="1.0" encoding="utf-8"?>
<!-- Generator: Adobe Illustrator 24.2.3, SVG Export Plug-In . SVG Version: 6.00 Build 0)  -->
<svg version="1.1" id="_x30_1_x5F_Contact-Female" xmlns="http://www.w3.org/2000/svg" xmlns:xlink="http://www.w3.org/1999/xlink"
	 x="0px" y="0px" viewBox="0 0 24 24" style="enable-background:new 0 0 24 24;" xml:space="preserve">
<style type="text/css">
	.st0{fill:#020203;}
</style>
<path class="st0" d="M5.2,12.6c-0.3-0.4-0.3-0.9,0-1.3l5-6c0,0,0,0,0,0c0.4-0.4,1-0.5,1.4-0.1c0.4,0.4,0.5,1,0.1,1.4L7.3,12l4.3,5.4
	c0.1,0.2,0.2,0.4,0.2,0.6c0,0.6-0.5,1-1,1c-0.3,0-0.6-0.1-0.8-0.4L5.2,12.6z M17.1,18.6c0.2,0.2,0.5,0.4,0.8,0.4c0.6,0,1-0.4,1-1
	c0-0.2-0.1-0.5-0.2-0.6L14.3,12l4.5-5.4c0.4-0.4,0.3-1.1-0.1-1.4c-0.4-0.4-1.1-0.3-1.4,0.1l-5,6c-0.3,0.4-0.3,0.9,0,1.3L17.1,18.6z"
	/>
</svg>
