<?xml version="1.0" encoding="utf-8"?>
<!-- Generator: Adobe Illustrator 24.2.3, SVG Export Plug-In . SVG Version: 6.00 Build 0)  -->
<svg version="1.1" id="_x30_1_x5F_Contact-Female" xmlns="http://www.w3.org/2000/svg" xmlns:xlink="http://www.w3.org/1999/xlink"
	 x="0px" y="0px" viewBox="0 0 24 24" style="enable-background:new 0 0 24 24;" xml:space="preserve">
<style type="text/css">
	.st0{fill:#020203;}
</style>
<path class="st0" d="M17.7,16.3L13.4,12l4.3-4.3c0.4-0.4,0.4-1,0-1.4c-0.4-0.4-1-0.4-1.4,0L12,10.6L7.7,6.3c-0.4-0.4-1-0.4-1.4,0
	c-0.4,0.4-0.4,1,0,1.4l4.3,4.3l-4.3,4.3c-0.4,0.4-0.4,1,0,1.4c0,0,0,0,0,0c0.4,0.4,1,0.4,1.4,0c0,0,0,0,0,0l4.3-4.3l4.3,4.3
	c0.4,0.4,1,0.4,1.4,0c0,0,0,0,0,0C18.1,17.3,18.1,16.7,17.7,16.3C17.7,16.3,17.7,16.3,17.7,16.3z"/>
</svg>
