<?xml version="1.0" encoding="utf-8"?>
<!-- Generator: Adobe Illustrator 24.2.3, SVG Export Plug-In . SVG Version: 6.00 Build 0)  -->
<svg version="1.1" id="_x30_1_x5F_Contact-Female" xmlns="http://www.w3.org/2000/svg" xmlns:xlink="http://www.w3.org/1999/xlink"
	 x="0px" y="0px" viewBox="0 0 24 24" style="enable-background:new 0 0 24 24;" xml:space="preserve">
<style type="text/css">
	.st0{fill:#020203;}
</style>
<path class="st0" d="M8,21.1c1.3,0.6,2.6,0.9,4,0.9c2.2,0,4.3-0.7,6.1-2.1c0.4-0.3,0.5-1,0.2-1.4c-0.3-0.4-1-0.5-1.4-0.2
	c0,0,0,0,0,0c-3.5,2.7-8.5,2-11.2-1.6C3,13.3,3.7,8.2,7.2,5.6c1.6-1.2,3.6-1.8,5.6-1.6c4.2,0.5,7.3,4,7.2,8.2v0.7
	c0,0.9-0.8,1.7-1.7,1.7c0,0,0,0-0.1,0c-0.9-0.1-1.7-0.9-1.6-1.9V8.4c0-0.6-0.4-1-1-1c-0.5,0-0.9,0.4-1,0.9c-0.9-0.9-2.2-1.4-3.4-1.4
	c-2.8,0-5.1,2.3-5.1,5.1c0,2.8,2.3,5.1,5.1,5.1c1.6,0,3.1-0.8,4.1-2.1c1.1,1.7,3.3,2.1,5,1.1c0.2-0.1,0.4-0.3,0.6-0.5
	c0.7-0.7,1.2-1.7,1.1-2.7v-0.7C22,7,18.2,2.6,13,2C7.5,1.5,2.6,5.5,2.1,11C1.7,15.3,4.1,19.4,8,21.1z M11.2,15.1
	c-1.7,0-3.1-1.4-3.1-3.1c0-1.7,1.4-3.1,3.1-3.1s3.1,1.4,3.1,3.1C14.3,13.7,12.9,15.1,11.2,15.1z"/>
</svg>
