<?xml version="1.0" encoding="utf-8"?>
<!-- Generator: Adobe Illustrator 24.2.3, SVG Export Plug-In . SVG Version: 6.00 Build 0)  -->
<svg version="1.1" id="_x30_1_x5F_Contact-Female" xmlns="http://www.w3.org/2000/svg" xmlns:xlink="http://www.w3.org/1999/xlink"
	 x="0px" y="0px" viewBox="0 0 24 24" style="enable-background:new 0 0 24 24;" xml:space="preserve">
<style type="text/css">
	.st0{fill:#020203;}
</style>
<path class="st0" d="M3,8h1v11c0,1.7,1.3,3,3,3h10c1.7,0,3-1.3,3-3V8h1c0.6,0,1-0.4,1-1c0-0.6-0.4-1-1-1h-5V4.3C16,3,14.8,2,13.5,2
	h-3C9.2,2,8,3,8,4.3V6H3C2.4,6,2,6.4,2,7C2,7.6,2.4,8,3,8z M10,4.3C10,4.2,10.2,4,10.5,4h3C13.8,4,14,4.2,14,4.3V6h-4V4.3z M6,8h12
	v11c0,0.6-0.4,1-1,1H7c-0.6,0-1-0.4-1-1V8z M8,16v-4c0-0.6,0.4-1,1-1s1,0.4,1,1v4c0,0.6-0.4,1-1,1S8,16.6,8,16z M14,16v-4
	c0-0.6,0.4-1,1-1s1,0.4,1,1v4c0,0.6-0.4,1-1,1S14,16.6,14,16z"/>
</svg>
