<?xml version="1.0" encoding="utf-8"?>
<!-- Generator: Adobe Illustrator 24.2.3, SVG Export Plug-In . SVG Version: 6.00 Build 0)  -->
<svg version="1.1" id="_x30_1_x5F_Contact-Female" xmlns="http://www.w3.org/2000/svg" xmlns:xlink="http://www.w3.org/1999/xlink"
	 x="0px" y="0px" viewBox="0 0 24 24" style="enable-background:new 0 0 24 24;" xml:space="preserve">
<style type="text/css">
	.st0{fill:#020203;}
</style>
<path class="st0" d="M3,18V6c0-1.7,1.3-3,3-3h6c0.6,0,1,0.4,1,1c0,0.6-0.4,1-1,1H6C5.4,5,5,5.4,5,6v12c0,0.6,0.4,1,1,1h12
	c0.6,0,1-0.4,1-1v-6c0-0.6,0.4-1,1-1s1,0.4,1,1v6c0,1.7-1.3,3-3,3H6C4.3,21,3,19.7,3,18z M16,5h1.6l-6.3,6.3c-0.4,0.4-0.4,1,0,1.4
	c0,0,0,0,0,0c0.4,0.4,1,0.4,1.4,0c0,0,0,0,0,0L19,6.4V8c0,0.6,0.4,1,1,1s1-0.4,1-1V4c0-0.6-0.4-1-1-1h-4c-0.6,0-1,0.4-1,1
	C15,4.6,15.4,5,16,5z"/>
</svg>
