<?xml version="1.0" encoding="utf-8"?>
<!-- Generator: Adobe Illustrator 24.2.3, SVG Export Plug-In . SVG Version: 6.00 Build 0)  -->
<svg version="1.1" id="_x30_1_x5F_Contact-Female" xmlns="http://www.w3.org/2000/svg" xmlns:xlink="http://www.w3.org/1999/xlink"
	 x="0px" y="0px" viewBox="0 0 24 24" style="enable-background:new 0 0 24 24;" xml:space="preserve">
<style type="text/css">
	.st0{fill:#020203;}
</style>
<path class="st0" d="M6,14.8h2V21c0,0.6,0.4,1,1,1h4c0.6,0,1-0.4,1-1v-6.2h2c0.5,0,0.9-0.3,1-0.7l1-3.6c0.1-0.3,0-0.6-0.2-0.9
	c-0.2-0.2-0.5-0.4-0.8-0.4h-3V7.6h3c0.6,0,1-0.4,1-1V3c0-0.6-0.4-1-1-1h-3c-3.2-0.1-5.9,2.3-6,5.5v1.7H6c-0.6,0-1,0.4-1,1v3.6
	C5,14.4,5.4,14.8,6,14.8z M7,11.2h2c0.6,0,1-0.4,1-1V7.5c0.1-2.1,1.9-3.6,4-3.5h2v1.6h-2c-1.1,0-1.9,0.8-2,1.9v2.7c0,0.6,0.4,1,1,1
	h2.7l-0.4,1.6H13c-0.6,0-1,0.4-1,1V20h-2v-6.2c0-0.6-0.4-1-1-1H7V11.2z"/>
</svg>
