<?xml version="1.0" encoding="utf-8"?>
<!-- Generator: Adobe Illustrator 24.2.3, SVG Export Plug-In . SVG Version: 6.00 Build 0)  -->
<svg version="1.1" id="_x30_1_x5F_Contact-Female" xmlns="http://www.w3.org/2000/svg" xmlns:xlink="http://www.w3.org/1999/xlink"
	 x="0px" y="0px" viewBox="0 0 24 24" style="enable-background:new 0 0 24 24;" xml:space="preserve">
<style type="text/css">
	.st0{fill:#020203;}
</style>
<path class="st0" d="M8,17c0-0.6,0.4-1,1-1h6c0.6,0,1,0.4,1,1c0,0.6-0.4,1-1,1H9C8.4,18,8,17.6,8,17z M9,14h3c0.6,0,1-0.4,1-1
	c0-0.6-0.4-1-1-1H9c-0.6,0-1,0.4-1,1C8,13.6,8.4,14,9,14z M4,19.5v-15c0,0,0,0,0,0C4,3.1,5.2,2,6.6,2h7c0.3,0,0.6,0.1,0.7,0.3l5.4,6
	C19.9,8.5,20,8.8,20,9v10.5c0,0,0,0,0,0c0,1.4-1.2,2.5-2.6,2.5H6.6c0,0,0,0,0,0C5.2,22,4,20.9,4,19.5z M14,7.2C14,7.6,14.3,8,14.7,8
	h2L14,5L14,7.2C14,7.2,14,7.2,14,7.2z M6,19.5C6,19.5,6,19.5,6,19.5C6,19.8,6.3,20,6.6,20h10.9c0,0,0,0,0,0c0.3,0,0.5-0.2,0.6-0.5
	V10h-3.3C13.2,10,12,8.7,12,7.1V4H6.6c0,0,0,0,0,0C6.3,4,6,4.2,6,4.5V19.5z"/>
</svg>
