<?xml version="1.0" encoding="utf-8"?>
<!-- Generator: Adobe Illustrator 24.2.3, SVG Export Plug-In . SVG Version: 6.00 Build 0)  -->
<svg version="1.1" id="_x30_1_x5F_Contact-Female" xmlns="http://www.w3.org/2000/svg" xmlns:xlink="http://www.w3.org/1999/xlink"
	 x="0px" y="0px" viewBox="0 0 24 24" style="enable-background:new 0 0 24 24;" xml:space="preserve">
<style type="text/css">
	.st0{fill:#020203;}
</style>
<path class="st0" d="M19,4H5C4.8,4,4.7,4,4.5,4.1C4,4.4,3.9,5,4.1,5.5l4.8,9.2V18c0,0.3,0.1,0.6,0.4,0.8l4,3
	c0.2,0.1,0.4,0.2,0.6,0.2c0.1,0,0.3,0,0.4-0.1c0.3-0.2,0.6-0.5,0.5-0.9v-6.3l5-9.2c0.2-0.3,0.2-0.7,0-1C19.7,4.2,19.4,4,19,4z
	 M13,14c-0.1,0.1-0.1,0.3-0.1,0.4V19l-2-1.5l0-3c0-0.2,0-0.3-0.1-0.5L6.6,6h10.7L13,14z"/>
</svg>
