<?xml version="1.0" encoding="utf-8"?>
<!-- Generator: Adobe Illustrator 24.2.3, SVG Export Plug-In . SVG Version: 6.00 Build 0)  -->
<svg version="1.1" id="_x30_1_x5F_Contact-Female" xmlns="http://www.w3.org/2000/svg" xmlns:xlink="http://www.w3.org/1999/xlink"
	 x="0px" y="0px" viewBox="0 0 24 24" style="enable-background:new 0 0 24 24;" xml:space="preserve">
<style type="text/css">
	.st0{fill:#020203;}
</style>
<path class="st0" d="M12,22c5.5,0,10-4.5,10-10c0-5.5-4.5-10-10-10S2,6.5,2,12C2,17.5,6.5,22,12,22z M19.8,10.1
	c0.8,3.1-0.3,6.3-2.9,8.3l0,0c-0.2-0.4-0.4-0.8-0.6-1.1c-0.1-0.2-0.2-0.3-0.3-0.5c-0.4-0.7-0.3-1,0.4-2l0.1-0.2
	c0.4-0.7,0.6-1.6,0.5-2.4c0-0.3,0-0.7,0.1-1C17.3,10.4,18.8,10.2,19.8,10.1z M15.7,4.9c1.4,0.7,2.6,1.8,3.3,3.2
	c-1.4,0.2-3.5,0.7-3.9,2.5C15,11.1,15,11.5,15,12c0,0.5-0.1,1-0.3,1.5l-0.1,0.2c-0.6,1.1-1.4,2.3-0.4,4c0.1,0.2,0.3,0.4,0.4,0.6
	c0.3,0.3,0.4,0.7,0.5,1.1c-1,0.4-2,0.7-3.1,0.7c-2.9,0-5.6-1.6-7-4.2c0.7,0.2,1.3,0.3,2,0.3c1.1,0,2.2-0.3,3.1-1
	c1.7-1.3,1.7-3.1,1.7-4.4c-0.1-0.8,0.1-1.6,0.4-2.3c0.3-0.4,0.7-0.7,1.1-0.9C13.7,7.2,14,7,14.3,6.8C14.9,6.3,15.4,5.6,15.7,4.9z
	 M4,12c0-4.4,3.6-8,8-8c0.6,0,1.2,0.1,1.8,0.2c-0.2,0.4-0.4,0.7-0.8,1c-0.2,0.2-0.5,0.3-0.7,0.5c-0.8,0.4-1.4,1-1.8,1.7
	c-0.5,1-0.7,2.2-0.6,3.3c0,1.4,0,2.2-1,2.9c-1.4,1.1-3.5,0.5-4.8-0.1C4,13,4,12.5,4,12z"/>
</svg>
