<?xml version="1.0" encoding="utf-8"?>
<!-- Generator: Adobe Illustrator 24.2.3, SVG Export Plug-In . SVG Version: 6.00 Build 0)  -->
<svg version="1.1" id="_x30_1_x5F_Contact-Female" xmlns="http://www.w3.org/2000/svg" xmlns:xlink="http://www.w3.org/1999/xlink"
	 x="0px" y="0px" viewBox="0 0 24 24" style="enable-background:new 0 0 24 24;" xml:space="preserve">
<style type="text/css">
	.st0{fill:#020203;}
</style>
<path class="st0" d="M12,22c5.5,0,10-4.5,10-10c0-5.5-4.5-10-10-10S2,6.5,2,12C2,17.5,6.5,22,12,22z M12,4c4.4,0,8,3.6,8,8
	s-3.6,8-8,8s-8-3.6-8-8S7.6,4,12,4z M8.5,9.5C8.5,7.6,10.1,6,12,6c1.6,0,2.9,1,3.4,2.5c0.5,1.9-0.5,3.8-2.4,4.3V14c0,0.6-0.4,1-1,1
	s-1-0.4-1-1v-2c0-0.6,0.4-1,1-1c0.8,0,1.5-0.7,1.5-1.5S12.8,8,12,8s-1.5,0.7-1.5,1.5c0,0.6-0.4,1-1,1S8.5,10.1,8.5,9.5z M13,17
	c0,0.6-0.4,1-1,1s-1-0.4-1-1c0-0.6,0.4-1,1-1S13,16.4,13,17z"/>
</svg>
