<?xml version="1.0" encoding="utf-8"?>
<!-- Generator: Adobe Illustrator 24.2.3, SVG Export Plug-In . SVG Version: 6.00 Build 0)  -->
<svg version="1.1" id="_x30_1_x5F_Contact-Female" xmlns="http://www.w3.org/2000/svg" xmlns:xlink="http://www.w3.org/1999/xlink"
	 x="0px" y="0px" viewBox="0 0 24 24" style="enable-background:new 0 0 24 24;" xml:space="preserve">
<style type="text/css">
	.st0{fill:#020203;}
</style>
<path class="st0" d="M11,22h1.7c1.1,0,2-0.9,2-2v-5.5c0-0.3,0.1-0.5,0.3-0.6c0.2-0.2,0.4-0.2,0.7-0.2c0.4,0.1,0.7,0.5,0.7,0.9V20
	c0,1.1,0.9,2,2,2H20c1.1,0,2-0.9,2-2v-5.5C22,11,19.1,8,15.5,8S9,11,9,14.5V20C9,21.1,9.9,22,11,22z M11,14.5c0-2.5,2-4.5,4.5-4.5
	s4.5,2,4.5,4.5V20h-1.7v-5.4c0-1.4-1-2.6-2.4-2.9c-0.2,0-0.3,0-0.5,0c-1.6,0-2.8,1.3-2.8,2.8V20H11V14.5z M4,22h2c1.1,0,2-0.9,2-2
	V10c0-1.1-0.9-2-2-2H4c-1.1,0-2,0.9-2,2v10C2,21.1,2.9,22,4,22z M4,10h2v10H4V10z M5,7c1.7,0,3-1.3,3-3S6.7,1,5,1S2,2.3,2,4
	S3.3,7,5,7z M5,3c0.6,0,1,0.4,1,1c0,0.6-0.4,1-1,1S4,4.6,4,4C4,3.4,4.4,3,5,3z"/>
</svg>
