<?xml version="1.0" encoding="utf-8"?>
<!-- Generator: Adobe Illustrator 24.2.3, SVG Export Plug-In . SVG Version: 6.00 Build 0)  -->
<svg version="1.1" id="_x30_1_x5F_Contact-Female" xmlns="http://www.w3.org/2000/svg" xmlns:xlink="http://www.w3.org/1999/xlink"
	 x="0px" y="0px" viewBox="0 0 24 24" style="enable-background:new 0 0 24 24;" xml:space="preserve">
<style type="text/css">
	.st0{fill:#020203;}
</style>
<path class="st0" d="M9.3,14.7c-0.4-0.4-0.4-1,0-1.4l4-4c0.4-0.4,1-0.4,1.4,0c0.4,0.4,0.4,1,0,1.4l-4,4c0,0,0,0,0,0
	C10.3,15.1,9.7,15.1,9.3,14.7C9.3,14.7,9.3,14.7,9.3,14.7z M11.7,20.7c0.2-0.2,0.4-0.3,0.6-0.5l1.4-1.4c0.4-0.4,0.4-1,0-1.4
	c-0.4-0.4-1-0.4-1.4,0L11,18.7c-1.5,1.5-3.9,1.7-5.6,0.4c-1.7-1.4-1.9-3.9-0.5-5.6c0.1-0.1,0.2-0.2,0.3-0.3l1.4-1.4
	c0.4-0.4,0.4-1,0-1.4c0,0,0,0,0,0c-0.4-0.4-1-0.4-1.4,0c0,0,0,0,0,0l-1.3,1.3c-2.2,2.1-2.5,5.6-0.7,8.1C5.3,22.3,9.1,22.8,11.7,20.7
	z M10.3,6.6c0.4,0.4,1,0.4,1.4,0c0,0,0,0,0,0L13,5.3c1.5-1.5,3.9-1.7,5.6-0.4c1.7,1.4,2,3.9,0.6,5.6c-0.1,0.1-0.2,0.2-0.3,0.3
	l-1.4,1.4c-0.4,0.4-0.4,1,0,1.4c0,0,0,0,0,0c0.4,0.4,1,0.4,1.4,0c0,0,0,0,0,0l1.4-1.4c2.4-2.4,2.3-6.2,0-8.6
	c-0.2-0.2-0.4-0.3-0.6-0.5c-2.5-1.8-6-1.6-8.1,0.7L10.5,5C10,5.4,9.9,6,10.3,6.6C10.2,6.6,10.3,6.6,10.3,6.6z"/>
</svg>
