<?xml version="1.0" encoding="utf-8"?>
<!-- Generator: Adobe Illustrator 24.2.3, SVG Export Plug-In . SVG Version: 6.00 Build 0)  -->
<svg version="1.1" id="_x30_1_x5F_Contact-Female" xmlns="http://www.w3.org/2000/svg" xmlns:xlink="http://www.w3.org/1999/xlink"
	 x="0px" y="0px" viewBox="0 0 24 24" style="enable-background:new 0 0 24 24;" xml:space="preserve">
<style type="text/css">
	.st0{fill:#020203;}
</style>
<path class="st0" d="M21,12L21,12c0,0.6-0.4,1-1,1H4c-0.5,0-1-0.4-1-1V12c0-0.5,0.4-1,1-1H20C20.6,11,21,11.4,21,12z M20,16H4
	c-0.5,0-1,0.4-1,1V17c0,0.5,0.4,1,1,1H20c0.5,0,1-0.4,1-1V17C21,16.4,20.6,16,20,16z M20,6H4C3.4,6,3,6.4,3,7V7c0,0.5,0.4,1,1,1H20
	c0.5,0,1-0.4,1-1V7C21,6.4,20.6,6,20,6z"/>
</svg>
