<?xml version="1.0" encoding="utf-8"?>
<!-- Generator: Adobe Illustrator 24.2.3, SVG Export Plug-In . SVG Version: 6.00 Build 0)  -->
<svg version="1.1" id="_x30_1_x5F_Contact-Female" xmlns="http://www.w3.org/2000/svg" xmlns:xlink="http://www.w3.org/1999/xlink"
	 x="0px" y="0px" viewBox="0 0 24 24" style="enable-background:new 0 0 24 24;" xml:space="preserve">
<style type="text/css">
	.st0{fill:#020203;}
</style>
<path class="st0" d="M9,11c2.2,0,4-1.8,4-4c0-2.2-1.8-4-4-4S5,4.8,5,7C5,9.2,6.8,11,9,11z M9,5c1.1,0,2,0.9,2,2c0,1.1-0.9,2-2,2
	S7,8.1,7,7C7,5.9,7.9,5,9,5z M17,13c1.7,0,3-1.3,3-3s-1.3-3-3-3s-3,1.3-3,3S15.3,13,17,13z M17,9c0.6,0,1,0.4,1,1c0,0.6-0.4,1-1,1
	s-1-0.4-1-1C16,9.4,16.4,9,17,9z M2,20c0-1.8,0.7-3.6,2-4.9c2.7-2.7,7.2-2.7,9.9,0c0.9-0.7,2-1,3.1-1c2.8,0,5,2.2,5,5
	c0,0.6-0.4,1-1,1s-1-0.4-1-1c0-0.7-0.2-1.3-0.6-1.9c-1-1.3-2.9-1.5-4.2-0.5c0.6,1,0.9,2.2,0.9,3.4c0,0.6-0.4,1-1,1s-1-0.4-1-1
	c0-2.8-2.2-5-5-5s-5,2.2-5,5c0,0.6-0.4,1-1,1S2,20.6,2,20z"/>
</svg>
