<?xml version="1.0" encoding="utf-8"?>
<!-- Generator: Adobe Illustrator 24.2.3, SVG Export Plug-In . SVG Version: 6.00 Build 0)  -->
<svg version="1.1" id="_x30_1_x5F_Contact-Female" xmlns="http://www.w3.org/2000/svg" xmlns:xlink="http://www.w3.org/1999/xlink"
	 x="0px" y="0px" viewBox="0 0 24 24" style="enable-background:new 0 0 24 24;" xml:space="preserve">
<style type="text/css">
	.st0{fill:#020203;}
</style>
<path class="st0" d="M12,11c2.2,0,4-1.8,4-4c0-2.2-1.8-4-4-4S8,4.8,8,7C8,9.2,9.8,11,12,11z M12,5c1.1,0,2,0.9,2,2c0,1.1-0.9,2-2,2
	s-2-0.9-2-2C10,5.9,10.9,5,12,5z M5,20c0-3.9,3.1-7,7-7s7,3.1,7,7c0,0.6-0.4,1-1,1s-1-0.4-1-1c0-2.8-2.2-5-5-5s-5,2.2-5,5
	c0,0.6-0.4,1-1,1S5,20.6,5,20z"/>
</svg>
