<?xml version="1.0" encoding="utf-8"?>
<!-- Generator: Adobe Illustrator 24.2.3, SVG Export Plug-In . SVG Version: 6.00 Build 0)  -->
<svg version="1.1" id="_x30_1_x5F_Contact-Female" xmlns="http://www.w3.org/2000/svg" xmlns:xlink="http://www.w3.org/1999/xlink"
	 x="0px" y="0px" viewBox="0 0 24 24" style="enable-background:new 0 0 24 24;" xml:space="preserve">
<style type="text/css">
	.st0{fill:#020203;}
</style>
<path class="st0" d="M17.4,22c2.5,0,4.6-2,4.6-4.5c0-0.3,0-0.5-0.1-0.8c0-0.2-0.1-0.5-0.2-0.7c-0.1-0.3-0.4-0.6-0.7-0.7l-6-1.4
	c-0.3-0.1-0.7,0-0.9,0.3c-0.1,0.1-0.2,0.1-0.8,1.4c-2.2-1-3.9-2.7-4.9-4.9c1.2-0.6,1.2-0.6,1.4-0.8c0.2-0.2,0.3-0.6,0.3-0.9L8.7,3
	C8.7,2.7,8.4,2.4,8.1,2.3C7.9,2.2,7.6,2.1,7.4,2.1C7.1,2,6.9,2,6.6,2C4.1,2,2,4.1,2,6.6C2,15.1,8.9,22,17.4,22z M6.6,4h0.3L8,8.6
	L7.5,8.9c-0.9,0.5-1.5,0.8-1.2,1.6c1.2,3.4,3.8,6,7.2,7.2c0.8,0.3,1.2-0.3,1.6-1.2l0.3-0.5l4.6,1.1v0.3c0,1.4-1.2,2.6-2.6,2.6
	C10,20,4,14,4,6.6C4,5.2,5.2,4,6.6,4z"/>
</svg>
