<?xml version="1.0" encoding="utf-8"?>
<!-- Generator: Adobe Illustrator 24.2.3, SVG Export Plug-In . SVG Version: 6.00 Build 0)  -->
<svg version="1.1" id="_x30_1_x5F_Contact-Female" xmlns="http://www.w3.org/2000/svg" xmlns:xlink="http://www.w3.org/1999/xlink"
	 x="0px" y="0px" viewBox="0 0 24 24" style="enable-background:new 0 0 24 24;" xml:space="preserve">
<style type="text/css">
	.st0{fill:#020203;}
</style>
<path class="st0" d="M11.3,21.8c0.4,0.3,0.9,0.3,1.3,0C13,21.5,20,15.4,20,9.9C20,5.5,16.4,2,12,2C7.6,2,4,5.5,4,9.9
	C4,15.4,11,21.5,11.3,21.8z M12,3.9c3.3,0,6,2.7,6,6c0,3.7-4.3,8.1-6,9.7c-1.7-1.6-6-6-6-9.7C6,6.6,8.7,3.9,12,3.9z M15.5,9.5
	C15.5,7.6,13.9,6,12,6S8.5,7.6,8.5,9.5S10.1,13,12,13S15.5,11.4,15.5,9.5z M10.5,9.5C10.5,8.7,11.2,8,12,8s1.5,0.7,1.5,1.5
	S12.8,11,12,11S10.5,10.3,10.5,9.5z"/>
</svg>
