<?xml version="1.0" encoding="utf-8"?>
<!-- Generator: Adobe Illustrator 24.2.3, SVG Export Plug-In . SVG Version: 6.00 Build 0)  -->
<svg version="1.1" id="_x30_1_x5F_Contact-Female" xmlns="http://www.w3.org/2000/svg" xmlns:xlink="http://www.w3.org/1999/xlink"
	 x="0px" y="0px" viewBox="0 0 24 24" style="enable-background:new 0 0 24 24;" xml:space="preserve">
<style type="text/css">
	.st0{fill:#020203;}
</style>
<path class="st0" d="M20.7,19.3l-3.4-3.4c1.1-1.4,1.7-3.1,1.7-4.9c0-4.4-3.6-8-8-8s-8,3.6-8,8s3.6,8,8,8c1.8,0,3.5-0.6,4.9-1.7
	l3.4,3.4c0.4,0.4,1,0.4,1.4,0c0,0,0,0,0,0C21.1,20.3,21.1,19.7,20.7,19.3C20.7,19.3,20.7,19.3,20.7,19.3z M11,17c-3.3,0-6-2.7-6-6
	s2.7-6,6-6s6,2.7,6,6S14.3,17,11,17z"/>
</svg>
