<?xml version="1.0" encoding="utf-8"?>
<!-- Generator: Adobe Illustrator 24.2.3, SVG Export Plug-In . SVG Version: 6.00 Build 0)  -->
<svg version="1.1" id="_x30_1_x5F_Contact-Female" xmlns="http://www.w3.org/2000/svg" xmlns:xlink="http://www.w3.org/1999/xlink"
	 x="0px" y="0px" viewBox="0 0 24 24" style="enable-background:new 0 0 24 24;" xml:space="preserve">
<style type="text/css">
	.st0{fill:#020203;}
</style>
<path class="st0" d="M12,22c5.5,0,10-4.5,10-10c0-5.5-4.5-10-10-10S2,6.5,2,12C2,17.5,6.5,22,12,22z M12,4c4.4,0,8,3.6,8,8
	c0,1.8-0.6,3.5-1.7,4.9L7.1,5.7C8.5,4.6,10.2,4,12,4z M5.7,7.1l11.2,11.2C15.5,19.4,13.8,20,12,20c-4.4,0-8-3.6-8-8
	C4,10.2,4.6,8.5,5.7,7.1z"/>
</svg>
