<?xml version="1.0" encoding="utf-8"?>
<!-- Generator: Adobe Illustrator 24.2.3, SVG Export Plug-In . SVG Version: 6.00 Build 0)  -->
<svg version="1.1" id="_x30_1_x5F_Contact-Female" xmlns="http://www.w3.org/2000/svg" xmlns:xlink="http://www.w3.org/1999/xlink"
	 x="0px" y="0px" viewBox="0 0 24 24" style="enable-background:new 0 0 24 24;" xml:space="preserve">
<style type="text/css">
	.st0{fill:#020203;}
</style>
<path class="st0" d="M3,17.5c-0.1,0.6,0.2,1.2,0.8,1.4c1.5,0.7,3,1.1,4.6,1.1h0.1c5.9,0.2,10.9-4.3,11.2-10.3c0.6-0.8,1-1.6,1.3-2.6
	c0.1-0.3,0-0.6-0.1-0.9c-0.3-0.7-1.2-1-1.9-0.7c-0.3,0.1-0.6,0.1-0.8-0.1c0,0,0,0,0-0.1c-1.7-1.8-4.5-1.8-6.3-0.1
	c-0.9,0.8-1.4,1.9-1.4,3.1C8.6,8.1,6.8,7.1,5.6,5.6C5.3,5.2,4.7,5,4.2,5.2c-0.5,0.2-0.9,0.6-1,1.1C2.6,9.8,4,13.3,6.7,15.4
	c-0.8,0.5-1.6,0.8-2.5,0.9C3.6,16.4,3.1,16.9,3,17.5z M9.1,15.8l0.6-0.9l-0.9-0.5C6.4,13.1,5,10.6,5,7.9c1.7,1.7,4.1,2.6,6.5,2.4
	l1.2-0.1l-0.3-1.1c-0.2-0.9,0.1-1.8,0.7-2.4C13.7,6.2,14.3,6,15,6c0.7,0,1.3,0.2,1.8,0.7c0.5,0.5,1.2,0.9,1.9,0.9
	c-0.2,0.4-0.4,0.7-0.6,1c-0.2,0.2-0.4,0.5-0.4,0.8c0,0,0,0.1,0,0.1c-0.2,4.9-4.2,8.6-9.1,8.5H8.5h0c-0.7,0-1.4-0.1-2.1-0.3
	C7.5,17.4,8.4,16.7,9.1,15.8z"/>
</svg>
