<?xml version="1.0" encoding="utf-8"?>
<!-- Generator: Adobe Illustrator 24.2.3, SVG Export Plug-In . SVG Version: 6.00 Build 0)  -->
<svg version="1.1" id="Ebene_1" xmlns="http://www.w3.org/2000/svg" xmlns:xlink="http://www.w3.org/1999/xlink" x="0px" y="0px"
	 viewBox="0 0 470 180" style="enable-background:new 0 0 470 180;" xml:space="preserve">
<style type="text/css">
	.st0{fill:#EFB137;}
	.st1{fill:#2C5A4F;}
</style>
<path id="Logo_x5F_Yellow" class="st0" d="M23.9,155.7H6.4L35.7,54.1C43.9,25.9,69.7,6.5,99,6.5h0L23.9,155.7z M157.9,117.1
	c-0.7,4.5-1,8.7-0.8,12.7c0.2,4,1,7.6,2.2,10.8c1.3,3.3,3.2,6.1,5.7,8.4c2.5,2.3,5.8,4.2,9.7,5.5c3.9,1.3,8.7,2,14.3,2
	c5.5,0,10.5-0.7,15.1-2c4.6-1.3,8.8-3.2,12.5-5.6c3.7-2.4,7.1-5.2,10.1-8.5c3-3.3,5.7-6.8,8.1-10.7c2.4-3.9,4.5-8,6.3-12.3
	c1.8-4.3,3.4-8.7,4.8-13.1l3.8-12.7h-29.6l-4.5,15.5c-0.9,3.1-1.9,6.1-3.1,9.2c-1.2,3.1-2.5,5.8-4.1,8.3c-1.6,2.5-3.4,4.5-5.5,6
	c-2.1,1.5-4.4,2.3-7.1,2.3c-8.7,0-11-7.4-6.7-22.2l18.8-65c4.3-14.8,10.8-22.3,19.6-22.3c2.7,0.2,4.6,1,5.8,2.5
	c1.2,1.5,1.9,3.4,2,5.8c0.1,2.4-0.1,5.1-0.7,8.1c-0.6,3-1.4,6.2-2.3,9.4l-4,13.9h29.7l3.7-13c2.1-7.3,3.3-13.9,3.6-20.1
	c0.3-6.1-0.5-11.4-2.5-15.9c-2-4.5-5.3-8-9.9-10.5C248.2,1.3,242,0,234.2,0c-28.9,0-48.5,17.8-58.8,53.4l-14.4,49.9
	C159.7,108,158.7,112.6,157.9,117.1z M267.8,156.5l30.8-106.6l-12.5,106.6h22.6l48.7-106l-30.6,106h22.3L392.6,5.9h-35l-46.2,100.4
	L324.5,5.9h-36.2l-43.5,150.6H267.8z M464,26.8l6-20.9h-62.4l-43.5,150.6h62.4l6-20.9h-32.1l13.4-46.4h22.8l6.2-21.4H420l11.8-41
	H464z"/>
<path id="Logo_x5F_Green" class="st1" d="M91.5,105.5H76.1l24-55.9L91.5,105.5z M53.8,155.7H85l3.1-31.4H68.6L53.8,155.7z
	 M175.3,6.5H126l-11.2,149.2h17.4L175.3,6.5z M0,180h420.8l2.9-9.9H2.9L0,180z"/>
</svg>
